<svg xmlns="http://www.w3.org/2000/svg" width="857" height="69" viewBox="0 0 857 69">
  <g id="Group_177057" data-name="Group 177057" transform="translate(4998 2122)">
    <rect id="Rectangle_19533" data-name="Rectangle 19533" width="857" height="69" transform="translate(-4998 -2122)" fill="#dbd000" opacity="0.8"/>
    <path id="Path_223949" data-name="Path 223949" d="M3.157-27.751V9.417H21.021V5.471H8.01V-27.751ZM38.619-16.179c5.013,0,9.279,3.146,9.225,8.852H29.393C29.927-13.033,33.873-16.179,38.619-16.179ZM52.27.405H47.044C45.978,3.551,43.2,5.791,38.832,5.791c-4.959,0-9.119-3.253-9.492-9.172H52.7a26.305,26.305,0,0,0,.16-2.933c0-8-5.546-13.971-14.025-13.971-8.532,0-14.451,5.813-14.451,15.038C24.381,4.031,30.513,9.9,38.832,9.9,46.085,9.9,50.777,5.738,52.27.405ZM57.443-5.3c0,9.065,6.026,15.2,13.811,15.2A12.2,12.2,0,0,0,82.186,3.978V9.417h4.906V-19.806H82.186v5.333c-1.706-3.04-5.439-5.813-10.879-5.813C63.469-20.285,57.443-14.42,57.443-5.3Zm24.743.053c0,6.879-4.586,10.879-9.919,10.879S62.4,1.578,62.4-5.3s4.533-10.772,9.865-10.772S82.186-12.02,82.186-5.247Zm17.971-1.227c0-6.772,3.52-8.852,8.159-8.852h1.28v-5.013c-4.639,0-7.786,2.026-9.439,5.279v-4.746H95.3V9.417h4.853ZM136.579,9.417h4.8V-7.807c0-8.372-5.173-12.532-11.945-12.532a10.8,10.8,0,0,0-9.385,4.693v-4.159H115.2V9.417h4.853V-6.741c0-6.292,3.413-9.385,8.372-9.385,4.906,0,8.159,3.04,8.159,9.012ZM183.56-27.8h-20V9.417h20v-4H168.415v-12.8H181.96v-4H168.415V-23.805H183.56Zm5.546,22.5c0,9.065,6.026,15.2,13.811,15.2a12.2,12.2,0,0,0,10.932-5.919V9.417h4.906V-19.806h-4.906v5.333c-1.706-3.04-5.439-5.813-10.879-5.813C195.131-20.285,189.106-14.42,189.106-5.3Zm24.743.053c0,6.879-4.586,10.879-9.919,10.879S194.065,1.578,194.065-5.3s4.533-10.772,9.865-10.772S213.849-12.02,213.849-5.247ZM231.82-6.474c0-6.772,3.52-8.852,8.159-8.852h1.28v-5.013c-4.639,0-7.786,2.026-9.439,5.279v-4.746h-4.853V9.417h4.853ZM268.242,9.417h4.8V-7.807c0-8.372-5.173-12.532-11.945-12.532a10.8,10.8,0,0,0-9.385,4.693v-4.159h-4.853V9.417h4.853V-6.741c0-6.292,3.413-9.385,8.372-9.385,4.906,0,8.159,3.04,8.159,9.012Zm25.17-18.611c0,11.145,8.159,18.931,18.558,18.931,8.052,0,14.451-4,17.224-11.145h-5.813c-2.026,4.426-5.973,6.932-11.412,6.932-7.786,0-13.6-5.653-13.6-14.718,0-9.119,5.813-14.771,13.6-14.771,5.439,0,9.385,2.506,11.412,6.986h5.813c-2.773-7.2-9.172-11.252-17.224-11.252C301.571-28.231,293.412-20.339,293.412-9.194Zm70.711,3.946c0-9.225-6.452-15.038-14.771-15.038-8.266,0-14.771,5.813-14.771,15.038,0,9.279,6.293,15.145,14.558,15.145C357.456,9.9,364.122,4.031,364.122-5.247Zm-24.583,0c0-7.359,4.639-10.825,9.759-10.825,5.013,0,9.865,3.466,9.865,10.825,0,7.412-4.959,10.879-10.025,10.879S339.539,2.165,339.539-5.247ZM391.905,9.417h4.8V-7.807c0-8.372-5.173-12.532-11.945-12.532a10.8,10.8,0,0,0-9.385,4.693v-4.159h-4.853V9.417h4.853V-6.741c0-6.292,3.413-9.385,8.372-9.385,4.906,0,8.159,3.04,8.159,9.012Zm34.129,0h4.8V-7.807c0-8.372-5.173-12.532-11.945-12.532a10.8,10.8,0,0,0-9.385,4.693v-4.159H404.65V9.417H409.5V-6.741c0-6.292,3.413-9.385,8.372-9.385,4.906,0,8.159,3.04,8.159,9.012Zm25.17-25.6c5.013,0,9.279,3.146,9.225,8.852H441.978C442.512-13.033,446.458-16.179,451.2-16.179ZM464.855.405h-5.226c-1.066,3.146-3.84,5.386-8.212,5.386-4.959,0-9.119-3.253-9.492-9.172h23.357a26.311,26.311,0,0,0,.16-2.933c0-8-5.546-13.971-14.025-13.971-8.532,0-14.451,5.813-14.451,15.038,0,9.279,6.132,15.145,14.451,15.145C458.67,9.9,463.362,5.738,464.855.405Zm5.173-5.653c0,9.279,5.919,15.145,14.238,15.145,7.252,0,12-4.053,13.492-9.865h-5.226c-1.067,3.68-3.946,5.759-8.266,5.759-5.333,0-9.279-3.786-9.279-11.039,0-7.146,3.946-10.932,9.279-10.932,4.319,0,7.252,2.24,8.266,5.759h5.226c-1.493-6.133-6.239-9.865-13.492-9.865C475.947-20.285,470.028-14.42,470.028-5.247Zm35.249,6.666c0,5.866,2.933,8,8.106,8h4.373V5.311h-3.573c-2.986,0-4.053-1.013-4.053-3.893V-15.806h7.626v-4h-7.626v-7.359h-4.853v7.359h-3.786v4h3.786Zm30.289-25.223h10.185V9.417H550.6V-23.805h10.132v-3.946h-25.17Zm36,17.331c0-6.772,3.52-8.852,8.159-8.852H581v-5.013c-4.639,0-7.786,2.026-9.439,5.279v-4.746h-4.853V9.417h4.853ZM584.786-5.3c0,9.065,6.026,15.2,13.811,15.2a12.2,12.2,0,0,0,10.932-5.919V9.417h4.906V-19.806h-4.906v5.333c-1.706-3.04-5.439-5.813-10.879-5.813C590.812-20.285,584.786-14.42,584.786-5.3Zm24.743.053c0,6.879-4.586,10.879-9.919,10.879S589.745,1.578,589.745-5.3s4.533-10.772,9.865-10.772S609.529-12.02,609.529-5.247Zm34.5,14.665h4.8V-7.807c0-8.372-5.173-12.532-11.945-12.532a10.8,10.8,0,0,0-9.385,4.693v-4.159h-4.853V9.417H627.5V-6.741c0-6.292,3.413-9.385,8.372-9.385,4.906,0,8.159,3.04,8.159,9.012Zm33.755-7.946c-.213-10.452-17.171-6.666-17.171-13.6,0-2.346,2.133-4.053,5.706-4.053,3.893,0,6.133,2.133,6.346,5.066h4.853c-.32-5.706-4.586-9.172-11.039-9.172-6.506,0-10.719,3.68-10.719,8.159,0,10.879,17.278,7.092,17.278,13.6,0,2.4-2.133,4.319-5.972,4.319-4.106,0-6.612-2.133-6.879-4.959h-5.013C655.5,6.164,660.3,9.9,667.122,9.9,673.574,9.9,677.787,6.271,677.787,1.472Zm7.732,7.946h4.853V-15.806H696.5v-4h-6.133v-2.08c0-3.786,1.44-5.386,5.813-5.386v-4.053c-7.466,0-10.665,2.933-10.665,9.439v2.08h-3.786v4h3.786ZM729.887-5.247c0-9.225-6.453-15.038-14.771-15.038-8.266,0-14.771,5.813-14.771,15.038,0,9.279,6.292,15.145,14.558,15.145C723.221,9.9,729.887,4.031,729.887-5.247Zm-24.583,0c0-7.359,4.639-10.825,9.759-10.825,5.013,0,9.865,3.466,9.865,10.825,0,7.412-4.959,10.879-10.025,10.879S705.3,2.165,705.3-5.247Zm35.835-1.227c0-6.772,3.52-8.852,8.159-8.852h1.28v-5.013c-4.639,0-7.786,2.026-9.439,5.279v-4.746h-4.853V9.417h4.853ZM798.358,9.417h4.8V-7.807c0-8.372-5.173-12.532-11.839-12.532-4.479,0-8.639,2.293-10.345,6.506-1.92-4.373-5.919-6.506-10.719-6.506a10.564,10.564,0,0,0-9.225,4.746v-4.213h-4.853V9.417h4.853v-16.1c0-6.292,3.36-9.439,8.266-9.439,4.8,0,8,3.04,8,9.012V9.417h4.8v-16.1c0-6.292,3.36-9.439,8.266-9.439,4.8,0,8,3.04,8,9.012Z" transform="translate(-4972.157 -2076.676)" fill="#141482"/>
  </g>
</svg>
