<svg xmlns="http://www.w3.org/2000/svg" width="99.065" height="21.482" viewBox="0 0 99.065 21.482">
  <g id="Group_80805" data-name="Group 80805" transform="translate(1336.572 1759.871)">
    <g id="Saathi_Logo_only" data-name="Saathi_Logo only" transform="translate(-1354.629 -1770.119)">
      <g id="Group_80671" data-name="Group 80671">
        <g id="Group_80670" data-name="Group 80670">
          <g id="Group_80802" data-name="Group 80802" transform="translate(18.057 10.663)">
            <g id="Group_80777" data-name="Group 80777">
              <g id="Layer2_6_FILL" data-name="Layer2 6 FILL">
                <path id="Path_141179" data-name="Path 141179" d="M574.006,235.962h-4.155v15.47h4.155v-15.47m-14.251-.3a6.681,6.681,0,0,0-2.678.532,6.193,6.193,0,0,0-2.112,1.507v-6.709H550.81v20.445h4.155v-8.413a3.364,3.364,0,0,1,.987-2.571,3.676,3.676,0,0,1,2.644-.94,2.871,2.871,0,0,1,2.253.88,3.727,3.727,0,0,1,.777,2.537v8.508h4.181v-8.975a7.582,7.582,0,0,0-1.5-5,5.668,5.668,0,0,0-4.55-1.794m-16.122.3v-3.756l-4.168.438v3.318h-2.739v3.546h2.739v6.722a5.347,5.347,0,0,0,1.455,4.108,5.891,5.891,0,0,0,4.155,1.352,12.944,12.944,0,0,0,2.507-.258V247.87a9.777,9.777,0,0,1-1.489.107,2.843,2.843,0,0,1-1.854-.5,2.09,2.09,0,0,1-.6-1.7V239.51h3.739v-3.546h-3.739m-9.6,0h-3.619l-.155,1.537a7.32,7.32,0,0,0-5.022-1.871,7.844,7.844,0,0,0-4,1.03,7.247,7.247,0,0,0-2.8,2.85,7.9,7.9,0,0,0-.82,2.279,9.421,9.421,0,0,0-.185,1.9,9.584,9.584,0,0,0,.185,1.9,8.486,8.486,0,0,0,.794,2.219,7.271,7.271,0,0,0,2.764,2.893,7.761,7.761,0,0,0,4.061,1.065,7.493,7.493,0,0,0,2.708-.489,7.209,7.209,0,0,0,2.314-1.4l.155,1.554h3.619v-15.47m-11.2,4.747a4.28,4.28,0,0,1,5.885,0,4.408,4.408,0,0,1,0,5.958,4.28,4.28,0,0,1-5.885,0,4.408,4.408,0,0,1,0-5.958m-24.995,1.077a9.421,9.421,0,0,0-.185,1.9,9.584,9.584,0,0,0,.185,1.9,8.486,8.486,0,0,0,.794,2.219,7.27,7.27,0,0,0,2.761,2.9,7.762,7.762,0,0,0,4.061,1.065,7.494,7.494,0,0,0,2.709-.489,7.209,7.209,0,0,0,2.314-1.4l.155,1.554h3.618V235.96h-3.618l-.155,1.537a7.32,7.32,0,0,0-5.022-1.871,7.844,7.844,0,0,0-4,1.03,7.247,7.247,0,0,0-2.8,2.85,7.9,7.9,0,0,0-.82,2.279m4.061,1.9a4.05,4.05,0,0,1,1.159-2.979,4.28,4.28,0,0,1,5.885,0,4.408,4.408,0,0,1,0,5.958,4.28,4.28,0,0,1-5.885,0,4.051,4.051,0,0,1-1.159-2.979m-7.224,5.052a5.883,5.883,0,0,0,1-3.412,5.125,5.125,0,0,0-1.824-4.181,11.478,11.478,0,0,0-5.28-2.069,9.035,9.035,0,0,1-3-.85,1.59,1.59,0,0,1-.82-1.434,1.658,1.658,0,0,1,.777-1.459,4.535,4.535,0,0,1,4.374.034,2.622,2.622,0,0,1,1.009,1.747h4.4a6.669,6.669,0,0,0-2.3-4.683,7.764,7.764,0,0,0-5.232-1.734,9.374,9.374,0,0,0-3.863.76,5.926,5.926,0,0,0-2.631,2.176,5.764,5.764,0,0,0-.957,3.314,4.929,4.929,0,0,0,1.76,4.078,11.419,11.419,0,0,0,5.142,1.992,9.134,9.134,0,0,1,3.043.944,1.785,1.785,0,0,1,.043,3.056,4.266,4.266,0,0,1-2.369.562,4.055,4.055,0,0,1-2.5-.683,2.652,2.652,0,0,1-1-1.979h-4.4a6.826,6.826,0,0,0,2.3,5.005,8.4,8.4,0,0,0,5.614,1.764,9.854,9.854,0,0,0,3.966-.76,6.261,6.261,0,0,0,2.753-2.184Z" transform="translate(-480.05 -230.7)" fill="#fff"/>
              </g>
            </g>
          </g>
        </g>
      </g>
    </g>
    <g id="Group_80801" data-name="Group 80801" transform="translate(-1246.784 -1759.871)">
      <g id="Group_80775" data-name="Group 80775">
        <g id="Layer2_5_FILL" data-name="Layer2 5 FILL">
          <path id="Path_141178" data-name="Path 141178" d="M1533.69,234.65H1532l1.507,1.61-1.507,1.7h1.687l1.537-1.7-1.537-1.61m-3.206,1.61-1.507,1.7h1.687l1.537-1.7-1.537-1.61h-1.687l1.507,1.61m-2.85,1.7,1.537-1.7-1.537-1.61h-1.687l1.507,1.61-1.507,1.7Z" transform="translate(-1525.95 -234.65)" fill="#fff"/>
        </g>
      </g>
    </g>
  </g>
</svg>
