<svg id="Saathi_Logo_Full" data-name="Saathi_Logo Full" xmlns="http://www.w3.org/2000/svg" width="681.78" height="314.034" viewBox="0 0 681.78 314.034">
  <g id="Group_80522" data-name="Group 80522" transform="translate(107.084 139.016)">
    <g id="Group_80521" data-name="Group 80521" transform="translate(0 0)">
      <g id="Group_80520" data-name="Group 80520">
        <g id="Group_80519" data-name="Group 80519">
          <path id="Path_141035" data-name="Path 141035" d="M2.607-56.932h-494.3V-8.16H2.607Z" transform="translate(491.692 56.932)" fill="#f0e400"/>
        </g>
      </g>
    </g>
  </g>
  <g id="Group_80524" data-name="Group 80524" transform="translate(0 228.24)">
    <g id="Group_80523" data-name="Group 80523">
      <path id="Path_141036" data-name="Path 141036" d="M867.931,773.858a2.807,2.807,0,0,0,.854,2.108,3.07,3.07,0,0,0,2.188.8,2.941,2.941,0,0,0,2.134-.8,2.807,2.807,0,0,0,.854-2.108,3.379,3.379,0,0,0-.08-.747,2.843,2.843,0,0,0-.774-1.361,2.941,2.941,0,0,0-2.134-.8,3.07,3.07,0,0,0-2.188.8,2.841,2.841,0,0,0-.774,1.361,3.375,3.375,0,0,0-.08.747M393.348,777.94v.72h-3.282v4.269h3.282v14.087h4.962V782.929h4.429V778.74h-4.509v-.293a2.316,2.316,0,0,1,.694-1.868,3.611,3.611,0,0,1,2.295-.56,12.4,12.4,0,0,1,1.734.107v-3.655a14.953,14.953,0,0,0-2.828-.267,8.86,8.86,0,0,0-4.215.907,6.332,6.332,0,0,0-.8.534,5.37,5.37,0,0,0-1.761,4.3m374.72-5.363h-4.963v24.439h4.963V772.578m-10.138,0h-4.963v24.439h4.963V772.578m-43.222-.374a13.254,13.254,0,0,0-4.936.907,12.68,12.68,0,0,0-1.441.694,11.42,11.42,0,0,0-4.4,4.509,12.973,12.973,0,0,0-1.6,6.457,13.273,13.273,0,0,0,1.6,6.51,11.468,11.468,0,0,0,4.4,4.482,12.646,12.646,0,0,0,6.377,1.627,12.858,12.858,0,0,0,5.629-1.227,10.772,10.772,0,0,0,4.242-3.468,12.2,12.2,0,0,0,2.268-5.229h-5.416a6.593,6.593,0,0,1-2.481,3.468,6.893,6.893,0,0,1-10.245-2.321,8.763,8.763,0,0,1,0-7.657,6.609,6.609,0,0,1,6.083-3.575,7.315,7.315,0,0,1,4.109,1.174,6.381,6.381,0,0,1,2.428,3.308h5.5a12.275,12.275,0,0,0-2.321-5.1,11.256,11.256,0,0,0-4.242-3.388q-.3-.142-.614-.267a13.142,13.142,0,0,0-4.936-.907m-74.917.374h-4.962v24.439h4.962V772.578m-13.66.534a8.5,8.5,0,0,0-3.068-.534h-9.925v24.439H623.41a9.121,9.121,0,0,0,4.029-.854,6.513,6.513,0,0,0,2.695-2.481A6.958,6.958,0,0,0,631.12,790a7.154,7.154,0,0,0-.854-3.468,6.139,6.139,0,0,0-2.374-2.481,5.2,5.2,0,0,0,1.627-2.134,6.51,6.51,0,0,0,.614-2.8,6.629,6.629,0,0,0-.907-3.415,6.016,6.016,0,0,0-2.481-2.321q-.3-.147-.614-.267m-7.844,9.044V777.38h4.135a2.839,2.839,0,0,1,1.894.587,2.379,2.379,0,0,1,.64,1.761,2.416,2.416,0,0,1-.64,1.787,2.491,2.491,0,0,1-1.841.64h-4.189m4.856,4.536a2.728,2.728,0,0,1,1.974.694,2.766,2.766,0,0,1,.694,2,2.857,2.857,0,0,1-.72,2.028,2.724,2.724,0,0,1-1.974.721h-4.829v-5.443h4.856m-59.176-6.11v-8H559v24.439h4.962V786.958a4.026,4.026,0,0,1,1.2-3.095,4.336,4.336,0,0,1,3.121-1.094,3.389,3.389,0,0,1,2.695,1.067,4.274,4.274,0,0,1,.961,3.042v10.138h4.989V786.264a9,9,0,0,0-1.788-5.95,6.711,6.711,0,0,0-5.443-2.188,7.585,7.585,0,0,0-5.736,2.455m-79.8-6.723a3.372,3.372,0,0,0-.08-.747,2.843,2.843,0,0,0-.774-1.361,2.885,2.885,0,0,0-2.134-.8,3.071,3.071,0,0,0-2.188.8,2.843,2.843,0,0,0-.774,1.361,3.375,3.375,0,0,0-.08.747,2.807,2.807,0,0,0,.854,2.108,3.07,3.07,0,0,0,2.188.8,2.884,2.884,0,0,0,2.134-.8,2.807,2.807,0,0,0,.854-2.108m356.525-1.281h-5.283v14.834a4.984,4.984,0,0,1-1.121,3.522,4.272,4.272,0,0,1-3.2,1.174,4.363,4.363,0,0,1-3.228-1.174,4.91,4.91,0,0,1-1.147-3.522V772.578H821.4v15.688a9.346,9.346,0,0,0,1.2,4.8,8.33,8.33,0,0,0,3.415,3.148,12.51,12.51,0,0,0,10.112,0,7.947,7.947,0,0,0,3.388-3.148,9.515,9.515,0,0,0,1.174-4.8V772.578m126.57,6.8a9.853,9.853,0,0,0-4.989-1.254,10,10,0,0,0-5.016,1.254,8.655,8.655,0,0,0-3.468,3.415,10.255,10.255,0,0,0,0,9.925,8.889,8.889,0,0,0,3.468,3.415,10,10,0,0,0,5.016,1.254,9.893,9.893,0,0,0,5.683-1.681,8.69,8.69,0,0,0,3.468-4.482H965.98a4.292,4.292,0,0,1-1.547,1.2,5.263,5.263,0,0,1-2.161.427,4.86,4.86,0,0,1-3.015-.907,4.325,4.325,0,0,1-1.627-2.561H971.8a10.56,10.56,0,0,0,.133-1.627,10.077,10.077,0,0,0-1.227-5.016,8.36,8.36,0,0,0-3.442-3.362m-4.989,3.282a5,5,0,0,1,3.015.854A4.132,4.132,0,0,1,966.914,786h-9.285a4.747,4.747,0,0,1,1.681-2.481,4.98,4.98,0,0,1,2.962-.854m-13.66-1.681a6.715,6.715,0,0,0-2.695-2.108,9.8,9.8,0,0,0-3.842-.721,9.361,9.361,0,0,0-5.6,1.574A5.026,5.026,0,0,0,934.338,784a4.6,4.6,0,0,0,1.708,3.815,10.972,10.972,0,0,0,5.389,1.894,10.856,10.856,0,0,1,2.935.667,1.266,1.266,0,0,1,.774,1.174,1.317,1.317,0,0,1-.8,1.2,4.167,4.167,0,0,1-2.108.454,4.122,4.122,0,0,1-2.214-.507,1.938,1.938,0,0,1-.907-1.494h-4.989a5.761,5.761,0,0,0,2.295,4.482,9.069,9.069,0,0,0,5.683,1.681,9.953,9.953,0,0,0,5.869-1.6,5.087,5.087,0,0,0,2.215-4.349,4.638,4.638,0,0,0-1.788-3.842,10.164,10.164,0,0,0-5.229-1.761,10.619,10.619,0,0,1-2.988-.72,1.428,1.428,0,0,1-.8-1.254,1.305,1.305,0,0,1,.667-1.147,3.992,3.992,0,0,1,1.974-.4,4.09,4.09,0,0,1,2.028.427,1.981,1.981,0,0,1,.88,1.334h4.8a5.351,5.351,0,0,0-1.12-3.068m-18.623-2.748a6.946,6.946,0,0,0-2.828.587,6.4,6.4,0,0,0-2.214,1.761l-.16-2.054h-4.642v18.489h4.989v-9.338a4.74,4.74,0,0,1,1.307-3.548,4.918,4.918,0,0,1,3.548-1.227,14.31,14.31,0,0,1,2.161.214v-4.589a8.519,8.519,0,0,0-2.161-.294M699.421,788.879v-4.642H688.055v4.642h11.365m102.1-10.352h-4.642v18.489h4.989v-9.338a4.74,4.74,0,0,1,1.307-3.548,4.918,4.918,0,0,1,3.548-1.227,14.307,14.307,0,0,1,2.161.214v-4.589a8.517,8.517,0,0,0-2.161-.294,6.945,6.945,0,0,0-2.828.587,6.4,6.4,0,0,0-2.214,1.761l-.16-2.054m-20.277-.4a9.624,9.624,0,0,0-4.8,1.2,9.173,9.173,0,0,0-3.335,3.415,10.256,10.256,0,0,0-1.2,5.016,10.132,10.132,0,0,0,1.2,4.909,8.672,8.672,0,0,0,3.282,3.468,9.5,9.5,0,0,0,4.856,1.254,8.925,8.925,0,0,0,6.03-2.241l.16,1.841h4.322V778.527h-4.322l-.16,1.841a8.8,8.8,0,0,0-6.03-2.241m5.549,9.632a4.913,4.913,0,0,1-1.361,3.548,4.813,4.813,0,0,1-3.549,1.414,4.669,4.669,0,0,1-3.522-1.414,4.913,4.913,0,0,1-1.361-3.548,4.982,4.982,0,0,1,1.361-3.6,4.764,4.764,0,0,1,3.522-1.361,4.913,4.913,0,0,1,3.549,1.361,4.982,4.982,0,0,1,1.361,3.6m-47.57-9.632a10.354,10.354,0,0,0-5.1,1.254,8.747,8.747,0,0,0-3.548,3.415,10.255,10.255,0,0,0,0,9.925,8.982,8.982,0,0,0,3.548,3.415,10.982,10.982,0,0,0,10.192,0,8.98,8.98,0,0,0,3.548-3.415,10.255,10.255,0,0,0,0-9.925,8.745,8.745,0,0,0-3.548-3.415,10.354,10.354,0,0,0-5.1-1.254m4.829,9.632a4.972,4.972,0,0,1-1.361,3.548,4.961,4.961,0,0,1-6.937,0,4.971,4.971,0,0,1-1.361-3.548,4.914,4.914,0,0,1,1.361-3.549,4.961,4.961,0,0,1,6.937,0,4.914,4.914,0,0,1,1.361,3.549m129.4-9.231h-4.963V796.99h4.963V778.527m38.312.854a9.853,9.853,0,0,0-4.989-1.254,10,10,0,0,0-5.016,1.254,8.657,8.657,0,0,0-3.468,3.415,10.254,10.254,0,0,0,0,9.925,8.89,8.89,0,0,0,3.468,3.415,10,10,0,0,0,5.016,1.254,9.892,9.892,0,0,0,5.683-1.681,8.69,8.69,0,0,0,3.468-4.482h-5.443a4.3,4.3,0,0,1-1.548,1.2,5.264,5.264,0,0,1-2.161.427,4.859,4.859,0,0,1-3.015-.907,4.323,4.323,0,0,1-1.627-2.561H916.3a10.544,10.544,0,0,0,.133-1.627,10.077,10.077,0,0,0-1.227-5.016,8.361,8.361,0,0,0-3.442-3.362m-1.974,4.135A4.132,4.132,0,0,1,911.42,786h-9.284a4.746,4.746,0,0,1,1.681-2.481,5.656,5.656,0,0,1,5.976,0m-33.35-4.989v.427l7.39,18.035h4.162l7.39-18.035v-.427h-5.256l-4.189,11.579L881.7,778.527h-5.256m-14.567,1.788a6.646,6.646,0,0,0-5.389-2.188,7.406,7.406,0,0,0-5.9,2.561l-.133-2.161h-4.7V796.99h4.963V786.958a4.025,4.025,0,0,1,1.2-3.095,4.275,4.275,0,0,1,3.121-1.121,3.389,3.389,0,0,1,2.695,1.067,4.415,4.415,0,0,1,.934,3.042V796.99h5.016V786.264a8.909,8.909,0,0,0-1.814-5.95m-181.184-.934a9.854,9.854,0,0,0-4.989-1.254,10,10,0,0,0-5.016,1.254,8.658,8.658,0,0,0-3.468,3.415,10.255,10.255,0,0,0,0,9.925,8.892,8.892,0,0,0,3.468,3.415,10,10,0,0,0,5.016,1.254,9.892,9.892,0,0,0,5.683-1.681,8.69,8.69,0,0,0,3.468-4.482h-5.443a4.3,4.3,0,0,1-1.547,1.2,5.264,5.264,0,0,1-2.161.427,4.859,4.859,0,0,1-3.015-.907,4.324,4.324,0,0,1-1.627-2.561h14.167a10.551,10.551,0,0,0,.133-1.627,10.077,10.077,0,0,0-1.227-5.016,8.361,8.361,0,0,0-3.442-3.362m-4.989,3.282a5,5,0,0,1,3.015.854A4.133,4.133,0,0,1,680.345,786H671.06a4.747,4.747,0,0,1,1.681-2.481,4.98,4.98,0,0,1,2.961-.854M483.66,778.527H478.7V796.99h4.962V778.527m166.03,0h-5.016v10.7a8.827,8.827,0,0,0,1.841,6.03,6.6,6.6,0,0,0,5.256,2.108,8.175,8.175,0,0,0,3.255-.64,7.181,7.181,0,0,0,2.561-1.894l.133,2.188h4.722V778.527H657.48v10a4.079,4.079,0,0,1-1.2,3.095,4.332,4.332,0,0,1-3.122,1.121,3.249,3.249,0,0,1-2.588-1.041,4.708,4.708,0,0,1-.88-3.068V778.527m-54.534.854a9.853,9.853,0,0,0-4.989-1.254,10,10,0,0,0-5.016,1.254,8.658,8.658,0,0,0-3.468,3.415,10.255,10.255,0,0,0,0,9.925,8.892,8.892,0,0,0,3.468,3.415,10,10,0,0,0,5.016,1.254,9.892,9.892,0,0,0,5.683-1.681,8.69,8.69,0,0,0,3.468-4.482h-5.443a4.3,4.3,0,0,1-1.547,1.2,5.264,5.264,0,0,1-2.161.427,4.86,4.86,0,0,1-3.015-.907,4.325,4.325,0,0,1-1.627-2.561h14.167a10.567,10.567,0,0,0,.133-1.627,10.076,10.076,0,0,0-1.227-5.016,8.361,8.361,0,0,0-3.442-3.362m-4.989,3.282a5,5,0,0,1,3.015.854A4.132,4.132,0,0,1,594.808,786h-9.285a4.746,4.746,0,0,1,1.681-2.481,4.981,4.981,0,0,1,2.962-.854m-44.716-4.135H542.2v4.242h3.255V790.8a6.33,6.33,0,0,0,1.761,4.882,7.041,7.041,0,0,0,4.963,1.627,16.334,16.334,0,0,0,2.988-.293v-4.269a9.15,9.15,0,0,1-1.788.16,3.587,3.587,0,0,1-2.241-.587,2.743,2.743,0,0,1-.667-2.054v-7.5h4.456v-4.242h-4.456v-4.482l-5.016.507v3.975m-26.253-.4a8.98,8.98,0,0,0-4.536,1.174,8.335,8.335,0,0,0-3.228,3.2,8.981,8.981,0,0,0-1.174,4.536,8.847,8.847,0,0,0,1.174,4.562,8.2,8.2,0,0,0,3.228,3.148,9.5,9.5,0,0,0,4.536,1.094,9,9,0,0,0,5.469-1.787v.587a3.464,3.464,0,0,1-1.361,2.961,6.665,6.665,0,0,1-6.083.507,2.393,2.393,0,0,1-1.361-1.574h-4.936a6.691,6.691,0,0,0,2.881,4.882,10.923,10.923,0,0,0,6.19,1.654,11.606,11.606,0,0,0,4.936-1.014,8.15,8.15,0,0,0,3.415-3.122,9.417,9.417,0,0,0,1.2-4.882V778.527h-4.322l-.133,1.761a8.033,8.033,0,0,0-2.695-1.6,9.328,9.328,0,0,0-3.2-.56m.774,4.536a4.6,4.6,0,0,1,3.362,1.254,4.148,4.148,0,0,1,1.334,3.2,4.264,4.264,0,0,1-1.334,3.255,5.254,5.254,0,0,1-6.75,0,4.4,4.4,0,0,1-1.254-3.255,4.3,4.3,0,0,1,1.307-3.2,4.564,4.564,0,0,1,3.335-1.254m-26.413-4.135h-4.722V796.99H493.8V786.958a4.026,4.026,0,0,1,1.2-3.095,4.276,4.276,0,0,1,3.122-1.121,3.389,3.389,0,0,1,2.695,1.067,4.334,4.334,0,0,1,.96,3.042V796.99h4.989V786.264a9,9,0,0,0-1.787-5.95,6.646,6.646,0,0,0-5.389-2.188,7.486,7.486,0,0,0-5.923,2.561l-.107-2.161m-42.474.293a6.719,6.719,0,0,0-2.481,1.841l-.133-2.134h-4.7V796.99h4.962V786.825a3.947,3.947,0,0,1,1.094-2.961,4.039,4.039,0,0,1,2.988-1.121,3.194,3.194,0,0,1,2.615,1.067,4.649,4.649,0,0,1,.854,3.015V796.99H461.3V786.825a3.894,3.894,0,0,1,1.121-2.961,3.983,3.983,0,0,1,2.988-1.121,3.242,3.242,0,0,1,2.615,1.067,4.648,4.648,0,0,1,.854,3.015V796.99h4.989V786.264a8.914,8.914,0,0,0-1.814-6.03,6.588,6.588,0,0,0-5.283-2.108,8.263,8.263,0,0,0-6.67,3.175,5.418,5.418,0,0,0-2.294-2.348,6.95,6.95,0,0,0-3.468-.827,7.41,7.41,0,0,0-3.255.694m-15.608,0a6.4,6.4,0,0,0-2.214,1.761l-.16-2.054h-4.642v18.489h4.989v-9.338a4.74,4.74,0,0,1,1.307-3.548A4.918,4.918,0,0,1,438.3,782.9a14.309,14.309,0,0,1,2.161.214v-4.589a8.518,8.518,0,0,0-2.161-.294,6.946,6.946,0,0,0-2.828.587m-20.784-.694a10.353,10.353,0,0,0-5.1,1.254,8.745,8.745,0,0,0-3.548,3.415,10.255,10.255,0,0,0,0,9.925,8.981,8.981,0,0,0,3.548,3.415,10.982,10.982,0,0,0,10.192,0,8.981,8.981,0,0,0,3.548-3.415,10.254,10.254,0,0,0,0-9.925,8.746,8.746,0,0,0-3.548-3.415,10.353,10.353,0,0,0-5.1-1.254m3.468,6.083a4.914,4.914,0,0,1,1.361,3.549,4.972,4.972,0,0,1-1.361,3.548,4.961,4.961,0,0,1-6.937,0,4.972,4.972,0,0,1-1.361-3.548,4.914,4.914,0,0,1,1.361-3.549,4.961,4.961,0,0,1,6.937,0M383.9,778.874a9.8,9.8,0,0,0-3.842-.721,9.36,9.36,0,0,0-5.6,1.574A5.026,5.026,0,0,0,372.324,784a4.6,4.6,0,0,0,1.708,3.815,10.972,10.972,0,0,0,5.389,1.894,10.858,10.858,0,0,1,2.935.667,1.266,1.266,0,0,1,.774,1.174,1.317,1.317,0,0,1-.8,1.2,4.167,4.167,0,0,1-2.108.454,4.123,4.123,0,0,1-2.214-.507,1.939,1.939,0,0,1-.907-1.494h-4.989a5.76,5.76,0,0,0,2.294,4.482,9.069,9.069,0,0,0,5.683,1.681,9.953,9.953,0,0,0,5.87-1.6,5.086,5.086,0,0,0,2.214-4.349,4.637,4.637,0,0,0-1.788-3.842,10.164,10.164,0,0,0-5.229-1.761,10.62,10.62,0,0,1-2.988-.72,1.428,1.428,0,0,1-.8-1.254,1.305,1.305,0,0,1,.667-1.147,3.992,3.992,0,0,1,1.974-.4,4.091,4.091,0,0,1,2.028.427,1.981,1.981,0,0,1,.88,1.334h4.8a5.352,5.352,0,0,0-1.12-3.068,6.716,6.716,0,0,0-2.695-2.108m-22.464-.747a7.486,7.486,0,0,0-5.923,2.561l-.107-2.161h-4.722V796.99h4.963V786.958a4.026,4.026,0,0,1,1.2-3.095,4.276,4.276,0,0,1,3.122-1.121,3.389,3.389,0,0,1,2.695,1.067,4.334,4.334,0,0,1,.961,3.042V796.99h4.989V786.264a9,9,0,0,0-1.788-5.95,6.646,6.646,0,0,0-5.389-2.188m-20.357,2.241a8.8,8.8,0,0,0-6.03-2.241,9.624,9.624,0,0,0-4.8,1.2,9.174,9.174,0,0,0-3.335,3.415,10.255,10.255,0,0,0-1.2,5.016,10.131,10.131,0,0,0,1.2,4.909,8.671,8.671,0,0,0,3.282,3.468,9.5,9.5,0,0,0,4.856,1.254,8.925,8.925,0,0,0,6.03-2.241l.16,1.841h4.322V778.527h-4.322l-.16,1.841m-5.389,2.428a4.913,4.913,0,0,1,3.548,1.361,4.982,4.982,0,0,1,1.361,3.6,4.913,4.913,0,0,1-1.361,3.548,4.813,4.813,0,0,1-3.548,1.414,4.67,4.67,0,0,1-3.522-1.414,4.913,4.913,0,0,1-1.361-3.548,4.982,4.982,0,0,1,1.361-3.6,4.765,4.765,0,0,1,3.522-1.361m-16.915-3.975a6.4,6.4,0,0,0-2.214,1.761l-.16-2.054h-4.642v18.489h4.989v-9.338a4.74,4.74,0,0,1,1.307-3.548,4.918,4.918,0,0,1,3.548-1.227,14.307,14.307,0,0,1,2.161.214v-4.589a8.518,8.518,0,0,0-2.161-.294,6.946,6.946,0,0,0-2.828.587m-28.628-6.243v5.016h6.43v19.423h5.309V777.593h6.51v-5.016Z" transform="translate(-290.15 -770.95)" fill="#fff"/>
    </g>
  </g>
  <g id="Group_80526" data-name="Group 80526" transform="translate(117.758 153.355)">
    <g id="Group_80525" data-name="Group 80525">
      <path id="Path_141037" data-name="Path 141037" d="M951.117,592.052H936.626v3.12h5.585v16.6h3.321v-16.6h5.585v-3.12m100.459,6.667-.05-1.887h-3.044v14.944h3.145v-7.925a4.188,4.188,0,0,1,1.233-3.17,4.548,4.548,0,0,1,3.245-1.182,8.355,8.355,0,0,1,1.56.176v-2.843a8.1,8.1,0,0,0-1.811-.226,5.111,5.111,0,0,0-4.277,2.113m33.16,4.629a7.555,7.555,0,0,0-1.51-5.057,5.5,5.5,0,0,0-4.353-1.711,7.034,7.034,0,0,0-3.044.654,6.88,6.88,0,0,0-2.466,1.962,5.151,5.151,0,0,0-4.931-2.617,5.911,5.911,0,0,0-4.655,2.088l-.025-1.837h-3.07v14.944h3.12v-8.252a4.1,4.1,0,0,1,1.107-2.994,3.894,3.894,0,0,1,2.918-1.107q3.321,0,3.321,4.1v8.252h3.145v-8.252a4.153,4.153,0,0,1,1.082-2.994,3.945,3.945,0,0,1,2.918-1.107q3.321,0,3.321,4.1v8.252h3.12v-8.428m-127.48.5a4.144,4.144,0,0,1,1.258-3.17,4.548,4.548,0,0,1,3.245-1.182,8.659,8.659,0,0,1,1.56.176v-2.843a8.1,8.1,0,0,0-1.811-.226,5.111,5.111,0,0,0-4.277,2.113l-.05-1.887h-3.044v14.944h3.12v-7.925m20.731-7.019-.05,1.711a6.679,6.679,0,0,0-2.29-1.459,7.912,7.912,0,0,0-2.893-.528,7.648,7.648,0,0,0-3.875.981,6.84,6.84,0,0,0-2.667,2.768,8.25,8.25,0,0,0-.956,4,8.105,8.105,0,0,0,.956,3.975,6.839,6.839,0,0,0,2.667,2.768,7.5,7.5,0,0,0,3.875,1.006,7.912,7.912,0,0,0,2.893-.528,6.809,6.809,0,0,0,2.29-1.51l.05,1.761h2.969V596.832h-2.969m-.7,4.956a5.543,5.543,0,0,1,0,5.032,4.287,4.287,0,0,1-1.686,1.686,4.833,4.833,0,0,1-2.44.6,4.781,4.781,0,0,1-2.415-.6,4.289,4.289,0,0,1-1.686-1.686,5.347,5.347,0,0,1,0-5.032,4.288,4.288,0,0,1,1.686-1.686,4.781,4.781,0,0,1,2.415-.6,4.832,4.832,0,0,1,2.44.6,4.287,4.287,0,0,1,1.686,1.686m22.442,1.56a7.157,7.157,0,0,0-1.61-5.007,5.635,5.635,0,0,0-4.453-1.761,6.628,6.628,0,0,0-5.057,2.088l-.025-1.837H985.51v14.944h3.145v-8.2a4.031,4.031,0,0,1,1.157-3.019,4.3,4.3,0,0,1,3.145-1.132,3.382,3.382,0,0,1,2.717,1.057,4.49,4.49,0,0,1,.931,3.094v8.2h3.12v-8.428m13.863-5.56a6.767,6.767,0,0,0-4.227-1.233,7.628,7.628,0,0,0-4.428,1.183,3.807,3.807,0,0,0-1.711,3.321,3.67,3.67,0,0,0,1.358,3.044,9.533,9.533,0,0,0,4.479,1.535,15.758,15.758,0,0,1,2.164.428,2.757,2.757,0,0,1,1.057.553,1.211,1.211,0,0,1,.3.855,1.437,1.437,0,0,1-.855,1.333,4.978,4.978,0,0,1-2.315.453,4.167,4.167,0,0,1-2.289-.553,2.049,2.049,0,0,1-.956-1.61h-3.145a4.577,4.577,0,0,0,1.786,3.6A7.306,7.306,0,0,0,1009.36,612a8.062,8.062,0,0,0,4.6-1.208,3.915,3.915,0,0,0,1.786-3.447,3.429,3.429,0,0,0-1.484-3.044,10.387,10.387,0,0,0-4.3-1.359,9.013,9.013,0,0,1-2.818-.7,1.342,1.342,0,0,1-.78-1.233,1.366,1.366,0,0,1,.755-1.258,4.181,4.181,0,0,1,2.139-.453,3.679,3.679,0,0,1,2.063.5,1.848,1.848,0,0,1,.906,1.384h3.094a4.385,4.385,0,0,0-1.736-3.4m23.549-1.233a8.209,8.209,0,0,0-4.1,1.006,7.083,7.083,0,0,0-2.793,2.742,7.768,7.768,0,0,0-1.031,4,7.633,7.633,0,0,0,1.031,3.975,7.037,7.037,0,0,0,2.793,2.768,8.705,8.705,0,0,0,8.126,0,6.993,6.993,0,0,0,2.818-2.768,7.78,7.78,0,0,0,1.006-3.975,7.918,7.918,0,0,0-1.006-4,7.038,7.038,0,0,0-2.818-2.742,8.147,8.147,0,0,0-4.025-1.006M1034.7,600.1a5.183,5.183,0,0,1,4.856,0,4.523,4.523,0,0,1,1.661,1.711,5.438,5.438,0,0,1,0,4.981,4.576,4.576,0,0,1-1.661,1.686,5,5,0,0,1-4.856,0,4.288,4.288,0,0,1-1.686-1.686,5.439,5.439,0,0,1,0-4.981,4.245,4.245,0,0,1,1.686-1.711m-7.221-8.2a15.7,15.7,0,0,0-1.987-.151,5.506,5.506,0,0,0-3.824,1.208,4.269,4.269,0,0,0-1.333,3.371v.554h-2.893V599.5h2.893v12.278h3.12V599.5h3.925v-2.616h-3.925v-.352a2.293,2.293,0,0,1,.578-1.761,3.133,3.133,0,0,1,2.063-.5,10.136,10.136,0,0,1,1.384.1V591.9M901.1,600.229a4.355,4.355,0,0,1,1.635,2.164h3.12a7.169,7.169,0,0,0-2.617-4.252,7.646,7.646,0,0,0-4.881-1.585,8.131,8.131,0,0,0-4.025.981,6.955,6.955,0,0,0-2.742,2.742,8.182,8.182,0,0,0-.981,4.051,8.027,8.027,0,0,0,.981,3.975,7.129,7.129,0,0,0,2.742,2.768,8.131,8.131,0,0,0,4.025.981,7.79,7.79,0,0,0,4.931-1.585,7.107,7.107,0,0,0,2.591-4.277h-3.145a4.261,4.261,0,0,1-1.61,2.164,4.784,4.784,0,0,1-2.717.755,4.434,4.434,0,0,1-3.346-1.333,4.711,4.711,0,0,1-1.283-3.447,4.921,4.921,0,0,1,1.283-3.522,4.479,4.479,0,0,1,3.346-1.308,4.861,4.861,0,0,1,2.692.73M915.543,611.9a18.105,18.105,0,0,0,1.962-.126v-2.818a9.6,9.6,0,0,1-1.409.1,3.062,3.062,0,0,1-2.063-.579,2.424,2.424,0,0,1-.629-1.862v-7.17h3.9v-2.617h-3.9v-3.749l-3.12.352v3.4h-2.918v2.617h2.918v7.523a4.834,4.834,0,0,0,1.308,3.723,5.709,5.709,0,0,0,3.95,1.208m-83.226-11.6a7.256,7.256,0,0,0-2.818-2.742,8.2,8.2,0,0,0-4.051-1.006,8.3,8.3,0,0,0-4.1,1.006,7.081,7.081,0,0,0-2.793,2.742,7.765,7.765,0,0,0-1.032,4,7.631,7.631,0,0,0,1.032,3.975,7.036,7.036,0,0,0,2.793,2.768,8.3,8.3,0,0,0,4.1,1.006,8.2,8.2,0,0,0,4.051-1.006,7.207,7.207,0,0,0,2.818-2.768,7.78,7.78,0,0,0,1.006-3.975,7.918,7.918,0,0,0-1.006-4m-6.868-.805a4.87,4.87,0,0,1,2.415.6,4.524,4.524,0,0,1,1.66,1.711,5.439,5.439,0,0,1,0,4.981,4.576,4.576,0,0,1-1.66,1.686,5,5,0,0,1-4.856,0,4.336,4.336,0,0,1-1.661-1.686,5.247,5.247,0,0,1,0-4.981,4.291,4.291,0,0,1,1.661-1.711,4.831,4.831,0,0,1,2.44-.6m23.976-1.157a5.714,5.714,0,0,0-4.478-1.761,6.628,6.628,0,0,0-5.057,2.088l-.025-1.837H836.8v14.944h3.145v-8.2a4.031,4.031,0,0,1,1.157-3.019,4.358,4.358,0,0,1,3.145-1.132,3.382,3.382,0,0,1,2.717,1.057,4.49,4.49,0,0,1,.931,3.094v8.2h3.12v-8.428a7.231,7.231,0,0,0-1.585-5.007m16.051,2.138a4.491,4.491,0,0,1,.931,3.094v8.2h3.12v-8.428a7.157,7.157,0,0,0-1.61-5.007,5.635,5.635,0,0,0-4.453-1.761,6.628,6.628,0,0,0-5.057,2.088l-.025-1.837h-3.069v14.944h3.145v-8.2a4.031,4.031,0,0,1,1.157-3.019,4.357,4.357,0,0,1,3.145-1.132,3.383,3.383,0,0,1,2.717,1.057m8.277-.176a7.918,7.918,0,0,0-1.006,4,7.78,7.78,0,0,0,1.006,3.975,7.081,7.081,0,0,0,2.768,2.768,7.867,7.867,0,0,0,3.975,1.006,8.105,8.105,0,0,0,4.6-1.308,6.866,6.866,0,0,0,2.767-3.547H884.5a4.013,4.013,0,0,1-1.61,1.459,5.492,5.492,0,0,1-2.39.5,4.358,4.358,0,0,1-4.529-3.824h12.277a5.977,5.977,0,0,0,.05-.906,8.525,8.525,0,0,0-.981-4.126,7.036,7.036,0,0,0-2.793-2.768,8.132,8.132,0,0,0-4.025-.981,7.866,7.866,0,0,0-3.975,1.006,7.127,7.127,0,0,0-2.768,2.742m6.743-.881a4.623,4.623,0,0,1,4.579,3.5h-9.007a4.387,4.387,0,0,1,4.428-3.5m-70.521-6.768a10.543,10.543,0,0,0-4.378-.906,9.838,9.838,0,0,0-5.057,1.308,9.378,9.378,0,0,0-3.522,3.623,11.261,11.261,0,0,0,0,10.441,9.377,9.377,0,0,0,3.522,3.623,9.838,9.838,0,0,0,5.057,1.308,10.071,10.071,0,0,0,4.378-.956,9.142,9.142,0,0,0,3.371-2.642,9.872,9.872,0,0,0,1.862-4.025h-3.346a6.272,6.272,0,0,1-2.34,3.22,6.564,6.564,0,0,1-3.849,1.157,6.48,6.48,0,0,1-3.371-.881,6.12,6.12,0,0,1-2.315-2.44,7.307,7.307,0,0,1-.855-3.573,7.453,7.453,0,0,1,.855-3.6,6.121,6.121,0,0,1,2.315-2.44,6.918,6.918,0,0,1,7.17.252,5.9,5.9,0,0,1,2.315,3.069h3.4a9.506,9.506,0,0,0-5.208-6.541m-71.753,4.428a8.1,8.1,0,0,0-6.743.453,6.839,6.839,0,0,0-2.667,2.768,8.249,8.249,0,0,0-.956,4,8.1,8.1,0,0,0,.956,3.975,6.839,6.839,0,0,0,2.667,2.768,7.5,7.5,0,0,0,3.874,1.006,7.715,7.715,0,0,0,2.868-.528,7.085,7.085,0,0,0,2.315-1.51l.05,1.761h2.969V596.832h-2.969l-.05,1.711a6.948,6.948,0,0,0-2.315-1.459m-2.466,2.415a4.921,4.921,0,0,1,2.44.6,4.287,4.287,0,0,1,1.686,1.686,5.543,5.543,0,0,1,0,5.032,4.287,4.287,0,0,1-1.686,1.686,5.234,5.234,0,0,1-4.881,0,4.336,4.336,0,0,1-1.66-1.686,5.347,5.347,0,0,1,0-5.032,4.336,4.336,0,0,1,1.66-1.686,4.921,4.921,0,0,1,2.44-.6m16.731,1.182a4.493,4.493,0,0,1,3.245-1.182,8.661,8.661,0,0,1,1.56.176v-2.843a8.1,8.1,0,0,0-1.811-.226,5.111,5.111,0,0,0-4.277,2.113l-.05-1.887h-3.069v14.944h3.145v-7.925a4.143,4.143,0,0,1,1.258-3.17m22.014,2.667a7.231,7.231,0,0,0-1.585-5.007,5.714,5.714,0,0,0-4.478-1.761,6.628,6.628,0,0,0-5.057,2.088v-1.837h-3.095v14.944h3.145v-8.2a4.031,4.031,0,0,1,1.157-3.019,4.358,4.358,0,0,1,3.145-1.132,3.382,3.382,0,0,1,2.717,1.057,4.49,4.49,0,0,1,.931,3.094v8.2h3.12v-8.428m-49.437-11.3h-12.1v19.725H725.24v-3.2h-8.956v-5.208h8.227v-3.145h-8.227V595.2h8.781v-3.145m-109.743,0H612v19.725h12.353v-3.2h-9.032V592.052m26.392,12.378a8.524,8.524,0,0,0-.981-4.126,7.081,7.081,0,0,0-2.768-2.768,8.222,8.222,0,0,0-4.025-.981,7.917,7.917,0,0,0-4,1.006A6.955,6.955,0,0,0,627.2,600.3a7.919,7.919,0,0,0-1.006,4,7.781,7.781,0,0,0,1.006,3.975,6.913,6.913,0,0,0,2.742,2.768,7.917,7.917,0,0,0,4,1.006,8.062,8.062,0,0,0,4.579-1.308,6.866,6.866,0,0,0,2.767-3.547h-3.371a4.013,4.013,0,0,1-1.61,1.459,5.432,5.432,0,0,1-2.365.5,4.314,4.314,0,0,1-4.529-3.824h12.278q.025-.3.025-.906m-7.774-5.007a4.48,4.48,0,0,1,2.918.981,4.58,4.58,0,0,1,1.635,2.516h-9.007a4.4,4.4,0,0,1,1.56-2.541,4.455,4.455,0,0,1,2.893-.956m20.479-2.34a7.843,7.843,0,0,0-2.868-.528,7.7,7.7,0,0,0-3.9.981,6.674,6.674,0,0,0-2.642,2.768,8.078,8.078,0,0,0-.981,4,7.937,7.937,0,0,0,.981,3.975,6.674,6.674,0,0,0,2.642,2.768,7.545,7.545,0,0,0,3.9,1.006,7.843,7.843,0,0,0,2.868-.528,6.807,6.807,0,0,0,2.289-1.51l.076,1.761h2.944V596.832h-2.944l-.076,1.711a6.677,6.677,0,0,0-2.289-1.459m1.66,4.7a5.543,5.543,0,0,1,0,5.032,4.245,4.245,0,0,1-1.711,1.686,4.781,4.781,0,0,1-2.415.6,4.832,4.832,0,0,1-2.44-.6,4.287,4.287,0,0,1-1.686-1.686,5.543,5.543,0,0,1,0-5.032,4.286,4.286,0,0,1,1.686-1.686,4.832,4.832,0,0,1,2.44-.6,4.781,4.781,0,0,1,2.415.6,4.244,4.244,0,0,1,1.711,1.686m17.41-4.956a8.339,8.339,0,0,0-1.811-.226,5.136,5.136,0,0,0-4.3,2.113l-.025-1.887H664.28v14.944h3.145v-7.925a4.188,4.188,0,0,1,1.233-3.17A4.548,4.548,0,0,1,671.9,599.5a8.747,8.747,0,0,1,1.585.176v-2.843m15.6,1.51a5.636,5.636,0,0,0-4.453-1.761,6.628,6.628,0,0,0-5.057,2.088l-.025-1.837h-3.069v14.944h3.145v-8.2a4.031,4.031,0,0,1,1.157-3.019,4.3,4.3,0,0,1,3.145-1.132,3.382,3.382,0,0,1,2.717,1.057,4.575,4.575,0,0,1,.906,3.094v8.2h3.12v-8.428A7.231,7.231,0,0,0,689.087,598.342Z" transform="translate(-612 -591.75)" fill="#0c0c65"/>
    </g>
  </g>
  <g id="Group_178112" data-name="Group 178112" transform="translate(0 290.218)">
    <g id="Group_80528" data-name="Group 80528">
      <g id="Group_80527" data-name="Group 80527">
        <path id="Path_141038" data-name="Path 141038" d="M841.2,918.866a6.764,6.764,0,0,0-2.848-2.484,9.574,9.574,0,0,0-8.053.107,7.12,7.12,0,0,0-2.87,2.592,7.232,7.232,0,0,0-1.071,3.855,6.911,6.911,0,0,0,1.071,3.812,7.218,7.218,0,0,0,3,2.634,10.681,10.681,0,0,0,4.562.985,9.989,9.989,0,0,0,3.662-.6,6.464,6.464,0,0,0,2.57-1.713l-3.084-3.127a5.393,5.393,0,0,1-1.349.814,4.454,4.454,0,0,1-1.606.257,3.587,3.587,0,0,1-1.842-.428,2.454,2.454,0,0,1-1.028-1.264h9.916q.022-.321.043-.685t.021-.685a7.446,7.446,0,0,0-1.092-4.069m-8.224,1.2a2.254,2.254,0,0,1,1.521-.514,2.222,2.222,0,0,1,1.5.514,2.39,2.39,0,0,1,.792,1.414H832.2a2.3,2.3,0,0,1,.771-1.414m-18.311.835h1.97v9.188h5.89V920.9h2.934v-4.3h-3.105v-.043a1.784,1.784,0,0,1,.386-1.263,1.361,1.361,0,0,1,1.007-.386,2.355,2.355,0,0,1,.707.107,3.129,3.129,0,0,1,.643.236l1.392-4.112a5.442,5.442,0,0,0-1.585-.514,10.63,10.63,0,0,0-1.906-.171,7.41,7.41,0,0,0-3.469.75,4.907,4.907,0,0,0-2.142,2.1,6.517,6.517,0,0,0-.75,3.213v.086h-1.97v4.3m-16.984-9.1h-6.147v18.29h14.392v-4.776h-8.246V911.8m15.656,4h-5.89v14.285h5.89V915.8m.6-4.262a2.583,2.583,0,0,0-.942-2.077,4.042,4.042,0,0,0-2.591-.814,3.87,3.87,0,0,0-2.613.878,2.669,2.669,0,0,0-.942,2.12,2.733,2.733,0,0,0,.942,2.142,4.295,4.295,0,0,0,5.2,0,2.9,2.9,0,0,0,.942-2.249m-195.556.792v4.048h-1.992v4.369h1.992v3.705a5.708,5.708,0,0,0,1.649,4.433,6.893,6.893,0,0,0,4.669,1.435,10.242,10.242,0,0,0,2.013-.193,5.593,5.593,0,0,0,1.649-.578l-1.413-4.155a2.166,2.166,0,0,1-.643.3,2.5,2.5,0,0,1-.707.107,1.179,1.179,0,0,1-.9-.364,1.475,1.475,0,0,1-.343-1.049V920.75h2.956v-4.369h-2.956v-4.048h-5.975m-34.288,3.919v-4.712H569.053v18.5h6.232v-5.932h7.731v-4.69h-7.731v-3.17h8.8m18.847,1.521a4.04,4.04,0,0,0-.835,2.484,4.263,4.263,0,0,0,.6,2.313,3.846,3.846,0,0,0,1.542,1.328,7.9,7.9,0,0,0,2.013.643q1.05.193,1.992.278a10.449,10.449,0,0,1,1.542.236q.6.15.621.492a.535.535,0,0,1-.364.514,3.865,3.865,0,0,1-1.478.193,10.592,10.592,0,0,1-2.656-.343,9.065,9.065,0,0,1-2.4-.964l-1.628,3.941a8.854,8.854,0,0,0,1.8.75,14.765,14.765,0,0,0,2.27.493,15.763,15.763,0,0,0,2.463.193,11.542,11.542,0,0,0,4.176-.685,5.7,5.7,0,0,0,2.484-1.778,3.98,3.98,0,0,0,.835-2.441,4.034,4.034,0,0,0-.621-2.292,3.847,3.847,0,0,0-1.542-1.328,8.592,8.592,0,0,0-1.992-.664q-1.049-.193-1.992-.3a10.45,10.45,0,0,1-1.542-.236q-.6-.15-.621-.514-.021-.278.407-.471a4.071,4.071,0,0,1,1.563-.236,9.3,9.3,0,0,1,1.992.236,7.839,7.839,0,0,1,2.185.835l1.628-3.941a10.309,10.309,0,0,0-2.72-.9,18.039,18.039,0,0,0-3.17-.278A11.005,11.005,0,0,0,605.4,916a5.651,5.651,0,0,0-2.463,1.778m-2.741,4.5q-.021-3.577-2.056-5.268a8.639,8.639,0,0,0-5.761-1.671,14.3,14.3,0,0,0-2.313.193,11.5,11.5,0,0,0-2.249.557,9,9,0,0,0-1.949.878l1.906,3.941a5.592,5.592,0,0,1,1.735-.835,6.593,6.593,0,0,1,1.97-.3,3.457,3.457,0,0,1,1.906.428,1.726,1.726,0,0,1,.814,1.264h-2.4a9.04,9.04,0,0,0-4.99,1.135,3.674,3.674,0,0,0-1.628,3.234,4.2,4.2,0,0,0,.621,2.249,4.037,4.037,0,0,0,1.778,1.628,6.755,6.755,0,0,0,2.956.621,5.347,5.347,0,0,0,2.57-.557,3.417,3.417,0,0,0,1.542-1.628v1.906h5.547v-7.774m-7.453,2.077h1.478v1.007a1.841,1.841,0,0,1-.75,1.028,1.9,1.9,0,0,1-1.114.343,1.712,1.712,0,0,1-1.071-.343,1.149,1.149,0,0,1,.064-1.734,2.551,2.551,0,0,1,1.392-.3m-237.769-3.534h2.956v-4.348h-2.956v-4h-5.954v4h-1.97v4.348h1.97v3.705a5.7,5.7,0,0,0,1.67,4.412,6.773,6.773,0,0,0,4.626,1.435,10.025,10.025,0,0,0,2.013-.193,5.892,5.892,0,0,0,1.649-.578l-1.414-4.133a2.169,2.169,0,0,1-.642.3,2.355,2.355,0,0,1-.707.107,1.222,1.222,0,0,1-.9-.364,1.618,1.618,0,0,1-.343-1.049v-3.641M314.9,916.339v-4.69H299.93v18.44h6.211V924.2h7.689v-4.69h-7.689v-3.17H314.9m18.74,1.521a4.041,4.041,0,0,0-.835,2.484,4.389,4.389,0,0,0,.621,2.313,3.9,3.9,0,0,0,1.542,1.307,7.578,7.578,0,0,0,1.992.642q1.049.193,1.992.278a10.469,10.469,0,0,1,1.542.235q.6.15.6.493.043.321-.364.514a3.791,3.791,0,0,1-1.456.193,10,10,0,0,1-2.656-.364,8.613,8.613,0,0,1-2.377-.942l-1.628,3.941a9.807,9.807,0,0,0,1.8.728,14.139,14.139,0,0,0,2.249.492,15.748,15.748,0,0,0,2.463.193,11.475,11.475,0,0,0,4.155-.685,5.726,5.726,0,0,0,2.484-1.756,4.048,4.048,0,0,0,.814-2.441,4.1,4.1,0,0,0-.621-2.292,3.748,3.748,0,0,0-1.521-1.306,8.578,8.578,0,0,0-1.992-.664q-1.049-.193-1.992-.3a10.414,10.414,0,0,1-1.521-.236q-.6-.15-.621-.514-.021-.279.407-.471a4,4,0,0,1,1.542-.235,9.31,9.31,0,0,1,1.992.235,7.58,7.58,0,0,1,2.163.835l1.649-3.941a10.867,10.867,0,0,0-2.72-.878,16.805,16.805,0,0,0-3.17-.3,11.363,11.363,0,0,0-4.048.664,5.872,5.872,0,0,0-2.484,1.777m-10.516-2.441a14.178,14.178,0,0,0-2.292.193,13.992,13.992,0,0,0-2.249.557,9.225,9.225,0,0,0-1.928.9l1.906,3.919a5.326,5.326,0,0,1,1.713-.835,6.528,6.528,0,0,1,1.949-.3,3.57,3.57,0,0,1,1.928.428,1.744,1.744,0,0,1,.792,1.264h-2.4a9.134,9.134,0,0,0-4.969,1.114,3.69,3.69,0,0,0-1.606,3.234,4.31,4.31,0,0,0,.6,2.249,4.22,4.22,0,0,0,1.8,1.606,6.612,6.612,0,0,0,2.934.621,5.22,5.22,0,0,0,2.549-.557,3.435,3.435,0,0,0,1.542-1.606v1.885h5.526v-7.731q-.021-3.577-2.035-5.269a8.851,8.851,0,0,0-5.761-1.67m.364,8.995h1.478v1.007a1.841,1.841,0,0,1-.75,1.028,1.994,1.994,0,0,1-1.114.321,1.538,1.538,0,0,1-1.049-.321,1.15,1.15,0,0,1,.064-1.735,2.437,2.437,0,0,1,1.371-.3m-107.555-3.577h2.956v-4.348h-2.956v-4.026H209.98v4.026h-1.97v4.348h1.97v3.684a5.725,5.725,0,0,0,1.671,4.433,6.807,6.807,0,0,0,4.647,1.435,9.921,9.921,0,0,0,1.992-.193,5.584,5.584,0,0,0,1.649-.578l-1.413-4.133a2.636,2.636,0,0,1-.643.3,2.9,2.9,0,0,1-.707.086,1.189,1.189,0,0,1-.878-.343,1.55,1.55,0,0,1-.364-1.05v-3.641m-40.092-4.476v-4.69H160.85v18.44h6.211V924.2h7.689v-4.69h-7.689V916.36h8.781m18.74,1.521a4.041,4.041,0,0,0-.835,2.484,4.271,4.271,0,0,0,.621,2.292,3.845,3.845,0,0,0,1.542,1.328,7.925,7.925,0,0,0,1.992.643q1.071.192,1.992.278a10.5,10.5,0,0,1,1.542.236q.6.15.621.493.021.321-.385.514a4.112,4.112,0,0,1-1.456.171,10.752,10.752,0,0,1-2.656-.343,8.617,8.617,0,0,1-2.377-.942l-1.628,3.941a9.789,9.789,0,0,0,1.8.728,14.751,14.751,0,0,0,2.27.493,15.358,15.358,0,0,0,2.442.193,11.655,11.655,0,0,0,4.176-.685,5.565,5.565,0,0,0,2.463-1.756,4.049,4.049,0,0,0,.814-2.442,4.15,4.15,0,0,0-.6-2.292,3.845,3.845,0,0,0-1.542-1.328,7.92,7.92,0,0,0-1.992-.643q-1.049-.193-1.97-.3a10.448,10.448,0,0,1-1.542-.236q-.6-.171-.621-.535-.021-.257.407-.471a4.513,4.513,0,0,1,1.563-.214,8.3,8.3,0,0,1,1.97.214,8.86,8.86,0,0,1,2.185.835L207,916.617a10.867,10.867,0,0,0-2.72-.878,16.574,16.574,0,0,0-3.17-.3,11.484,11.484,0,0,0-4.048.664,5.639,5.639,0,0,0-2.484,1.778m-10.494-2.442a14.29,14.29,0,0,0-2.313.193,12.03,12.03,0,0,0-2.249.557,9.976,9.976,0,0,0-1.928.878l1.906,3.941a6.016,6.016,0,0,1,1.713-.857,6.6,6.6,0,0,1,1.97-.3,3.522,3.522,0,0,1,1.906.428,1.813,1.813,0,0,1,.792,1.285h-2.377a8.934,8.934,0,0,0-4.99,1.114,3.69,3.69,0,0,0-1.606,3.234,4.31,4.31,0,0,0,.6,2.249,4.219,4.219,0,0,0,1.8,1.606,6.611,6.611,0,0,0,2.934.621,5.221,5.221,0,0,0,2.549-.557,3.435,3.435,0,0,0,1.542-1.606v1.885h5.525v-7.731q-.021-3.577-2.035-5.268a8.6,8.6,0,0,0-5.74-1.671m.343,9h1.5v.985a1.982,1.982,0,0,1-.75,1.028,2,2,0,0,1-1.135.343,1.679,1.679,0,0,1-1.049-.343,1.038,1.038,0,0,1-.364-.814,1.026,1.026,0,0,1,.428-.9,2.5,2.5,0,0,1,1.371-.3m270.258-5.868a7.536,7.536,0,0,0-4.883-1.414,18.571,18.571,0,0,0-3.427.343,23.242,23.242,0,0,0-3.684,1.071l1.328,3.919a13.221,13.221,0,0,1,2.356-.664,9.685,9.685,0,0,1,2.013-.257,2.841,2.841,0,0,1,1.649.407,1.461,1.461,0,0,1,.578,1.178h-3.277a6.893,6.893,0,0,0-4.176,1.156,3.872,3.872,0,0,0-1.414,3.234,4.373,4.373,0,0,0,1.264,3.3,4.953,4.953,0,0,0,3.555,1.221,4.634,4.634,0,0,0,4.048-1.8v1.563h5.825v-9.338a4.715,4.715,0,0,0-1.756-3.919m-4.069,8.652a2.282,2.282,0,0,1-.878.814,2.248,2.248,0,0,1-1.114.3,1.334,1.334,0,0,1-.985-.343,1.355,1.355,0,0,1-.321-.964q0-1.156,1.242-1.156h2.056v1.349m-9.7-9.209v-4.647H426.075v18.461H432.2V925.8h8.16v-4.6H432.2v-3.191h8.717m31.333.193v3.748h1.97V927.2a4.618,4.618,0,0,0,1.456,3.555,5.587,5.587,0,0,0,3.876,1.306,12.778,12.778,0,0,0,2.334-.214,6.148,6.148,0,0,0,1.863-.664l-1.007-4.048a4.6,4.6,0,0,1-1.478.364,1.093,1.093,0,0,1-.857-.3,1.268,1.268,0,0,1-.3-.9V921.95h3.384V918.2H480.11v-4.026h-5.89V918.2h-1.97m-.707.771a13.489,13.489,0,0,0-6.7-1.821,8.294,8.294,0,0,0-3.32.621,5.178,5.178,0,0,0-2.227,1.735,4.452,4.452,0,0,0-.792,2.613,3.464,3.464,0,0,0,.835,2.42,5.609,5.609,0,0,0,1.906,1.392,21.8,21.8,0,0,0,2.634.814,8.647,8.647,0,0,1,1.478.471q.471.214.471.493,0,.172-.236.3a1.581,1.581,0,0,1-.643.107,10.43,10.43,0,0,1-5.333-1.778l-1.778,3.705a12.265,12.265,0,0,0,7,2.013,9.191,9.191,0,0,0,3.469-.6,5.233,5.233,0,0,0,2.27-1.692,4.241,4.241,0,0,0,.814-2.57,3.433,3.433,0,0,0-.835-2.4,5.272,5.272,0,0,0-1.949-1.371,25.188,25.188,0,0,0-2.656-.878,10.355,10.355,0,0,1-1.563-.514q-.493-.193-.493-.514a.344.344,0,0,1,.236-.321.992.992,0,0,1,.578-.15,12.575,12.575,0,0,1,4.883,1.563Z" transform="translate(-160.85 -908.35)" fill="#1c83e9"/>
        <path id="Path_141039" data-name="Path 141039" d="M792.393,910.027h-5.975v19.618h5.975V910.027m-8.545,11.844q-.022-3.577-2.056-5.269a8.642,8.642,0,0,0-5.761-1.67,14.319,14.319,0,0,0-2.313.193,11.517,11.517,0,0,0-2.249.557,8.986,8.986,0,0,0-1.949.878l1.906,3.941a5.6,5.6,0,0,1,1.735-.835,6.6,6.6,0,0,1,1.97-.3,3.455,3.455,0,0,1,1.906.428,1.726,1.726,0,0,1,.814,1.264h-2.4a9.037,9.037,0,0,0-4.99,1.135,3.674,3.674,0,0,0-1.628,3.234,4.2,4.2,0,0,0,.621,2.249,4.039,4.039,0,0,0,1.778,1.628,6.757,6.757,0,0,0,2.956.621,5.349,5.349,0,0,0,2.57-.557,3.42,3.42,0,0,0,1.542-1.628v1.906h5.547v-7.774m-7.453,2.077h1.478v1.006a1.841,1.841,0,0,1-.75,1.028,1.9,1.9,0,0,1-1.114.343,1.712,1.712,0,0,1-1.071-.343,1.15,1.15,0,0,1,.064-1.735,2.552,2.552,0,0,1,1.392-.3m-15.484-8.759v14.456h5.975V915.189H760.91m.364-6.361a2.909,2.909,0,0,0,0,4.326,4.358,4.358,0,0,0,5.247,0,3,3,0,0,0,.985-2.27,2.642,2.642,0,0,0-.985-2.1,4.172,4.172,0,0,0-2.613-.835,4.055,4.055,0,0,0-2.634.878m95.3,7.474a10.523,10.523,0,0,0-2.677-.878,17.668,17.668,0,0,0-3.148-.279,10.7,10.7,0,0,0-4.026.664,5.747,5.747,0,0,0-2.442,1.756,3.951,3.951,0,0,0-.835,2.463,4,4,0,0,0,.621,2.27,3.749,3.749,0,0,0,1.521,1.306,7.591,7.591,0,0,0,1.97.643q1.049.193,1.992.278a10.4,10.4,0,0,1,1.521.236q.6.15.6.493a.535.535,0,0,1-.364.514,4.222,4.222,0,0,1-1.456.171,10.511,10.511,0,0,1-2.634-.343,9.231,9.231,0,0,1-2.356-.942l-1.606,3.9a9.165,9.165,0,0,0,1.778.728,14.121,14.121,0,0,0,2.249.492,15.194,15.194,0,0,0,2.42.193,11.3,11.3,0,0,0,4.133-.685,5.566,5.566,0,0,0,2.463-1.756,3.926,3.926,0,0,0,.814-2.4,4.1,4.1,0,0,0-.621-2.292,3.6,3.6,0,0,0-1.521-1.285,8.2,8.2,0,0,0-1.97-.664q-1.028-.193-1.97-.279a11.429,11.429,0,0,1-1.5-.257q-.6-.15-.621-.514-.021-.257.385-.471a4.423,4.423,0,0,1,1.542-.214,9.875,9.875,0,0,1,1.97.214,8.523,8.523,0,0,1,2.163.835l1.606-3.9m-27.242-.428a9.4,9.4,0,0,0-1.906.878l1.885,3.9a5.354,5.354,0,0,1,1.692-.835,6.991,6.991,0,0,1,1.949-.278,3.672,3.672,0,0,1,1.906.407,1.744,1.744,0,0,1,.792,1.264h-2.377a9.018,9.018,0,0,0-4.947,1.114,3.6,3.6,0,0,0-1.585,3.191,4.311,4.311,0,0,0,.6,2.249,3.955,3.955,0,0,0,1.778,1.585,6.47,6.47,0,0,0,2.913.621,5.173,5.173,0,0,0,2.527-.557,3.327,3.327,0,0,0,1.521-1.606v1.885h5.483v-7.667q-.021-3.555-2.013-5.226a8.6,8.6,0,0,0-5.7-1.649,13.928,13.928,0,0,0-2.292.193,12.66,12.66,0,0,0-2.227.536m6.339,8.181v.985a1.877,1.877,0,0,1-1.863,1.349,1.5,1.5,0,0,1-1.028-.321,1.089,1.089,0,0,1,.064-1.713,2.389,2.389,0,0,1,1.349-.3h1.478m-10-7.988V911.4H810.832v18.29h6.147v-5.847H824.6v-4.669h-7.624v-3.105h8.7m39.771,4.433h2.934v-4.3h-2.934v-4h-5.89v4h-1.97v4.3h1.97v3.662a5.579,5.579,0,0,0,1.628,4.369,6.738,6.738,0,0,0,4.6,1.435,9.9,9.9,0,0,0,1.992-.193,5.588,5.588,0,0,0,1.628-.578l-1.392-4.091a2.14,2.14,0,0,1-.642.278,2.352,2.352,0,0,1-.707.107,1.152,1.152,0,0,1-.878-.364,1.528,1.528,0,0,1-.343-1.028v-3.6m-155.957-.771a5.192,5.192,0,0,0,1.906,1.692,11.065,11.065,0,0,0,2.463.921q1.306.321,2.441.557a11.327,11.327,0,0,1,1.906.536q.728.3.75.878a.8.8,0,0,1-.535.75,4.828,4.828,0,0,1-1.863.257,12.357,12.357,0,0,1-3.17-.471,12.564,12.564,0,0,1-2.934-1.221l-2.013,4.54a10.759,10.759,0,0,0,2.227,1.006,15.975,15.975,0,0,0,2.763.643,18.1,18.1,0,0,0,3.063.257,12.226,12.226,0,0,0,4.8-.857,6.663,6.663,0,0,0,2.87-2.27,5.43,5.43,0,0,0,.964-3.127,4.94,4.94,0,0,0-.771-2.741,5.085,5.085,0,0,0-1.906-1.649,11.074,11.074,0,0,0-2.463-.921q-1.285-.321-2.441-.535a10.238,10.238,0,0,1-1.906-.514q-.728-.278-.75-.814a.934.934,0,0,1,.514-.835,4,4,0,0,1,1.906-.321,10.233,10.233,0,0,1,2.484.321,14.051,14.051,0,0,1,2.656,1.028l1.885-4.5a12.416,12.416,0,0,0-3.3-1.221,16.647,16.647,0,0,0-3.684-.407,12.326,12.326,0,0,0-4.8.857,6.528,6.528,0,0,0-2.87,2.249,5.487,5.487,0,0,0-.942,3.148,4.932,4.932,0,0,0,.75,2.763m32.232-1.221a7.308,7.308,0,0,0-2.956-2.613,10.338,10.338,0,0,0-8.717,0,7.31,7.31,0,0,0-2.956,2.613,7.261,7.261,0,0,0,2.956,10.43,10.132,10.132,0,0,0,8.717,0,7.359,7.359,0,0,0,2.956-10.43m-8.995,1.778a2.22,2.22,0,0,1,1.692-.707,2.128,2.128,0,0,1,1.649.707,3.067,3.067,0,0,1,.685,2.12,3.153,3.153,0,0,1-.685,2.142,2.1,2.1,0,0,1-1.649.728,2.189,2.189,0,0,1-1.692-.728,3.305,3.305,0,0,1-.685-2.142,3.213,3.213,0,0,1,.685-2.12m17.969,0a2.358,2.358,0,0,1,1.735-.707,2.176,2.176,0,0,1,1.414.45,3.429,3.429,0,0,1,1.092,1.456l4.626-2.292a5.876,5.876,0,0,0-2.591-3.127,8.458,8.458,0,0,0-4.519-1.135,9.787,9.787,0,0,0-4.433.964,7.278,7.278,0,0,0-2.977,2.613,7.089,7.089,0,0,0-1.114,3.9,7.2,7.2,0,0,0,1.114,3.919,7.276,7.276,0,0,0,2.977,2.613,9.979,9.979,0,0,0,4.433.985,8.724,8.724,0,0,0,4.519-1.135,5.975,5.975,0,0,0,2.591-3.148l-4.626-2.27a3.43,3.43,0,0,1-1.092,1.456,2.466,2.466,0,0,1-3.148-.257,3.2,3.2,0,0,1-.728-2.163,3.076,3.076,0,0,1,.728-2.12m-268.138-5.269a6.352,6.352,0,0,0-2.1.321,3.854,3.854,0,0,0-1.563.921v-6.1H472.94v19.532h5.654V928.51a4.147,4.147,0,0,0,1.628,1.092,6.852,6.852,0,0,0,2.334.364,7.117,7.117,0,0,0,3.491-.921,6.675,6.675,0,0,0,2.506-2.57,8.758,8.758,0,0,0,0-7.988,6.674,6.674,0,0,0-2.506-2.57,7.255,7.255,0,0,0-3.491-.9m-3.084,5.333a2.3,2.3,0,0,1,3.32,0,3.623,3.623,0,0,1,0,4.24,2.256,2.256,0,0,1-3.32,0,3.622,3.622,0,0,1,0-4.24m-9.466-1.756a7.156,7.156,0,0,0-2.934-2.613,10.288,10.288,0,0,0-8.7,0,7.341,7.341,0,0,0-2.934,2.613,7.463,7.463,0,0,0,0,7.774A7.5,7.5,0,0,0,458.377,929a10.288,10.288,0,0,0,8.7,0,7.306,7.306,0,0,0,2.934-2.634,7.463,7.463,0,0,0,0-7.774m-8.952,1.756a2.195,2.195,0,0,1,1.671-.707,2.128,2.128,0,0,1,1.649.707,3.067,3.067,0,0,1,.685,2.12,3.153,3.153,0,0,1-.685,2.142,2.1,2.1,0,0,1-1.649.728,2.164,2.164,0,0,1-1.671-.728,3.153,3.153,0,0,1-.685-2.142,3.067,3.067,0,0,1,.685-2.12M360.181,910.156h-5.954v19.553h5.954V910.156m79.884,1.092v4.69h6.254v7.025a2.472,2.472,0,0,1-.514,1.692,1.873,1.873,0,0,1-1.478.578,2.712,2.712,0,0,1-1.478-.45,6.194,6.194,0,0,1-1.435-1.349l-3.341,3.941a7.246,7.246,0,0,0,2.891,2.035,10.19,10.19,0,0,0,3.876.707,7.825,7.825,0,0,0,5.654-1.863q1.949-1.885,1.97-5.675V911.248h-12.4m-88.473-1.092h-5.954v19.553h5.954V910.156M315.87,921.164a5.314,5.314,0,0,0-1.906-1.649,11.9,11.9,0,0,0-2.442-.9q-1.306-.321-2.463-.535a9.694,9.694,0,0,1-1.885-.514q-.728-.278-.75-.814a.934.934,0,0,1,.514-.835,3.936,3.936,0,0,1,1.885-.321,10.054,10.054,0,0,1,2.484.321,16.3,16.3,0,0,1,2.656,1.028l1.863-4.5a11.594,11.594,0,0,0-3.277-1.2,16.647,16.647,0,0,0-3.684-.407,12.093,12.093,0,0,0-4.754.857,6.591,6.591,0,0,0-2.87,2.227,5.464,5.464,0,0,0-.964,3.148,4.763,4.763,0,0,0,2.656,4.433,11.082,11.082,0,0,0,2.463.921q1.285.321,2.441.557a10.634,10.634,0,0,1,1.885.535q.728.3.771.857a.812.812,0,0,1-.557.75,4.729,4.729,0,0,1-1.863.257,11.646,11.646,0,0,1-3.148-.45,13.082,13.082,0,0,1-2.934-1.221L300,928.232a10.234,10.234,0,0,0,2.206,1.007,16.534,16.534,0,0,0,2.784.642,17.714,17.714,0,0,0,3.041.257,12.162,12.162,0,0,0,4.776-.857,6.912,6.912,0,0,0,2.87-2.249,5.516,5.516,0,0,0,.942-3.127,4.893,4.893,0,0,0-.75-2.741M343,915.317h-5.954v14.392H343V915.317m-13.578,6.232,5.954-6.232h-7.025l-4.133,4.176v-9.338h-5.954v19.553h5.954V926.3l.964-1.028,3.491,4.433h7.2l-6.446-8.16M343.6,911.013a2.582,2.582,0,0,0-.964-2.1,4.043,4.043,0,0,0-2.591-.814,3.9,3.9,0,0,0-2.634.878,2.885,2.885,0,0,0,0,4.3,4.055,4.055,0,0,0,2.634.878,3.922,3.922,0,0,0,2.591-.9,2.865,2.865,0,0,0,.964-2.249m233.7,2.077a15.318,15.318,0,0,0-4.283-.621,10.958,10.958,0,0,0-4.2.749,5.992,5.992,0,0,0-2.741,2.12,5.541,5.541,0,0,0-.964,3.234,4.649,4.649,0,0,0,.921,3.02,5.874,5.874,0,0,0,2.27,1.67,24.694,24.694,0,0,0,3.255,1.028,16.042,16.042,0,0,1,2.356.75,1.1,1.1,0,0,1,.728.985.885.885,0,0,1-.385.792,1.961,1.961,0,0,1-1.092.257,9.7,9.7,0,0,1-3.512-.857,12.621,12.621,0,0,1-3.512-2.077l-2.249,4.626a14.753,14.753,0,0,0,4.283,2.185,15.949,15.949,0,0,0,4.947.814,10.7,10.7,0,0,0,3.919-.685,5.982,5.982,0,0,0,2.806-1.992,5.444,5.444,0,0,0,1.028-3.362,4.859,4.859,0,0,0-.942-3.127,6,6,0,0,0-2.292-1.756,27.833,27.833,0,0,0-3.277-1.114,13.367,13.367,0,0,1-2.313-.771,1.059,1.059,0,0,1-.707-.964q0-.835,1.135-.835a9.331,9.331,0,0,1,3,.664,20.045,20.045,0,0,1,3.341,1.542l2.206-4.669a13.525,13.525,0,0,0-3.726-1.606m20.967,4.005a22.573,22.573,0,0,0-3.662,1.071l1.306,3.919a13.253,13.253,0,0,1,2.356-.664,9.685,9.685,0,0,1,2.013-.257,2.885,2.885,0,0,1,1.671.407,1.461,1.461,0,0,1,.578,1.178h-3.277a6.83,6.83,0,0,0-4.176,1.156,3.871,3.871,0,0,0-1.413,3.234,4.372,4.372,0,0,0,1.264,3.3,4.907,4.907,0,0,0,3.555,1.221,4.667,4.667,0,0,0,4.048-1.8v1.563h5.825v-9.338a4.715,4.715,0,0,0-1.756-3.919,7.536,7.536,0,0,0-4.883-1.414,18.9,18.9,0,0,0-3.448.343m4.262,8.374v1.349a2.281,2.281,0,0,1-.878.814,2.248,2.248,0,0,1-1.114.3,1.334,1.334,0,0,1-.985-.343,1.355,1.355,0,0,1-.321-.964q0-1.156,1.242-1.156h2.056M589.255,917.8v-4.026h-5.89V917.8h-1.992v3.748h1.992V926.8a4.618,4.618,0,0,0,1.456,3.555,5.586,5.586,0,0,0,3.876,1.306,12.8,12.8,0,0,0,2.335-.214,5.864,5.864,0,0,0,1.842-.664l-.985-4.048a4.777,4.777,0,0,1-1.478.364,1.092,1.092,0,0,1-.857-.3,1.268,1.268,0,0,1-.3-.9V921.55h3.362V917.8h-3.362m31.911,0v3.748h1.992v9.873h5.868V921.55h2.784V917.8h-2.784v-.407a1.111,1.111,0,0,1,.364-.878,1.371,1.371,0,0,1,.942-.321,6.594,6.594,0,0,1,1.563.3l.557-4.39a11.91,11.91,0,0,0-3.427-.493,6.511,6.511,0,0,0-4.283,1.328,4.425,4.425,0,0,0-1.585,3.577V917.8h-1.992m-7.646-4.862a4.425,4.425,0,0,0-1.585,3.577V917.8h-1.992v3.748h1.992v9.873H617.8V921.55h2.784V917.8H617.8v-.407a1.111,1.111,0,0,1,.364-.878,1.371,1.371,0,0,1,.942-.321,6.347,6.347,0,0,1,1.542.3l.578-4.39a11.908,11.908,0,0,0-3.427-.493A6.511,6.511,0,0,0,613.52,912.94Z" transform="translate(-240.397 -907.95)" fill="#fff"/>
      </g>
    </g>
  </g>
  <g id="Group_80530" data-name="Group 80530" transform="translate(555.165 1.692)">
    <g id="Group_80529" data-name="Group 80529">
      <path id="Path_141040" data-name="Path 141040" d="M1564.586,234.65h-8.417l7.517,8.031-7.517,8.5h8.417l7.667-8.5-7.667-8.031m-16,8.031-7.517,8.5h8.417l7.667-8.5-7.667-8.031h-8.417l7.517,8.031m-14.221,8.5,7.667-8.5-7.667-8.031h-8.417l7.517,8.031-7.517,8.5Z" transform="translate(-1525.95 -234.65)" fill="#fff"/>
    </g>
  </g>
  <g id="Group_80532" data-name="Group 80532" transform="translate(107.169 0)">
    <g id="Group_80531" data-name="Group 80531">
      <path id="Path_141041" data-name="Path 141041" d="M948.841,256.957H928.11v77.186h20.731V256.957m-71.1-1.521a33.332,33.332,0,0,0-13.364,2.656,30.9,30.9,0,0,0-10.537,7.517V232.135H833.105V334.143h20.731V292.166q0-8.181,4.926-12.829,4.926-4.69,13.193-4.69,7.3,0,11.244,4.39,3.876,4.412,3.877,12.657v42.448h20.86V289.36q0-16-7.5-24.972-7.689-8.952-22.7-8.952M797.3,256.957v-18.74L776.5,240.4v16.555H762.837v17.69H776.5v33.539q0,13.749,7.26,20.5,7.282,6.746,20.732,6.746A64.6,64.6,0,0,0,817,334.143V316.367a48.766,48.766,0,0,1-7.432.535q-6.275,0-9.252-2.506-3.02-2.484-3.02-8.481V274.647H815.95v-17.69H797.3m-47.888,0H731.354l-.771,7.667a36.522,36.522,0,0,0-25.058-9.338,39.141,39.141,0,0,0-19.96,5.14A36.16,36.16,0,0,0,671.6,274.647a39.417,39.417,0,0,0-4.091,11.372,47.021,47.021,0,0,0-.921,9.488,47.85,47.85,0,0,0,.921,9.488,42.345,42.345,0,0,0,3.962,11.072A36.274,36.274,0,0,0,685.265,330.5a38.727,38.727,0,0,0,20.26,5.311,37.386,37.386,0,0,0,13.514-2.441,35.964,35.964,0,0,0,11.544-6.982l.771,7.753h18.054V256.957m-55.855,23.687q5.675-5.847,14.713-5.847a19.736,19.736,0,0,1,14.649,5.847,21.993,21.993,0,0,1,0,29.726,19.736,19.736,0,0,1-14.649,5.847q-9.038,0-14.713-5.847a21.993,21.993,0,0,1,0-29.726m-124.71,5.376a47.017,47.017,0,0,0-.921,9.488,47.846,47.846,0,0,0,.921,9.488,42.343,42.343,0,0,0,3.962,11.072A36.274,36.274,0,0,0,586.6,330.5a38.727,38.727,0,0,0,20.26,5.311,37.385,37.385,0,0,0,13.514-2.441,35.963,35.963,0,0,0,11.544-6.982l.771,7.753h18.054V256.957H632.687l-.771,7.667a36.522,36.522,0,0,0-25.058-9.338,39.14,39.14,0,0,0-19.96,5.14,36.16,36.16,0,0,0-13.964,14.221,39.419,39.419,0,0,0-4.091,11.372m20.26,9.488a20.21,20.21,0,0,1,5.783-14.863q5.675-5.847,14.713-5.847a19.736,19.736,0,0,1,14.649,5.847,21.993,21.993,0,0,1,0,29.726,19.736,19.736,0,0,1-14.649,5.847q-9.038,0-14.713-5.847a20.21,20.21,0,0,1-5.783-14.863M553.06,320.715a29.354,29.354,0,0,0,5.012-17.026q0-13.343-9.1-20.86-9.124-7.346-26.343-10.323-10.858-1.735-14.949-4.241a7.934,7.934,0,0,1-4.091-7.153,8.27,8.27,0,0,1,3.876-7.282q3.941-2.72,10.773-2.72,6.96,0,11.051,2.891a13.086,13.086,0,0,1,5.033,8.717h21.931q-1.285-14.649-11.458-23.366-10.109-8.652-26.107-8.652a46.768,46.768,0,0,0-19.275,3.791,29.566,29.566,0,0,0-13.128,10.858,28.756,28.756,0,0,0-4.776,16.534q0,13.278,8.781,20.346,8.8,6.982,25.657,9.937,10.708,1.906,15.185,4.712a8.906,8.906,0,0,1,.214,15.249q-4.241,2.806-11.822,2.806-7.967,0-12.465-3.405a13.232,13.232,0,0,1-4.99-9.873H480.05q.985,16,11.458,24.972,10.387,8.8,28.013,8.8a49.167,49.167,0,0,0,19.789-3.791A31.24,31.24,0,0,0,553.06,320.715Z" transform="translate(-480.05 -230.7)" fill="#fff"/>
    </g>
  </g>
</svg>
